<svg xmlns="http://www.w3.org/2000/svg" xmlns:xlink="http://www.w3.org/1999/xlink" contentStyleType="text/css" data-diagram-type="SEQUENCE" height="1387px" preserveAspectRatio="none" style="width:1564px;height:1387px;background:#FFFFFF;" version="1.1" viewBox="0 0 1564 1387" width="1564px" zoomAndPan="magnify"><defs/><g><g><title>UsuarioA</title><rect fill="#000000" fill-opacity="0.00000" height="1225.1797" width="8" x="153.3906" y="81.2969"/><line style="stroke:#181818;stroke-width:0.5;stroke-dasharray:5.0,5.0;" x1="157" x2="157" y1="81.2969" y2="1306.4766"/></g><g><title>UsuarioB</title><rect fill="#000000" fill-opacity="0.00000" height="1225.1797" width="8" x="411.9404" y="81.2969"/><line style="stroke:#181818;stroke-width:0.5;stroke-dasharray:5.0,5.0;" x1="415.5361" x2="415.5361" y1="81.2969" y2="1306.4766"/></g><g><title>Game Service</title><rect fill="#000000" fill-opacity="0.00000" height="1225.1797" width="8" x="725.6094" y="81.2969"/><line style="stroke:#181818;stroke-width:0.5;stroke-dasharray:5.0,5.0;" x1="728.6743" x2="728.6743" y1="81.2969" y2="1306.4766"/></g><g><title>Redis</title><rect fill="#000000" fill-opacity="0.00000" height="1225.1797" width="8" x="1038.2881" y="81.2969"/><line style="stroke:#181818;stroke-width:0.5;stroke-dasharray:5.0,5.0;" x1="1042.0825" x2="1042.0825" y1="81.2969" y2="1306.4766"/></g><g><title>Chat Service</title><rect fill="#000000" fill-opacity="0.00000" height="1225.1797" width="8" x="1365.3442" y="81.2969"/><line style="stroke:#181818;stroke-width:0.5;stroke-dasharray:5.0,5.0;" x1="1368.8901" x2="1368.8901" y1="81.2969" y2="1306.4766"/></g><g><title>Banco de Dados</title><rect fill="#000000" fill-opacity="0.00000" height="1225.1797" width="8" x="1490.7109" y="81.2969"/><line style="stroke:#181818;stroke-width:0.5;stroke-dasharray:5.0,5.0;" x1="1493.7983" x2="1493.7983" y1="81.2969" y2="1306.4766"/></g><g class="participant participant-head" data-participant="UsuarioA"><text fill="#000000" font-family="sans-serif" font-size="14" lengthAdjust="spacing" textLength="62.7813" x="123" y="77.9951">UsuarioA</text><ellipse cx="157.3906" cy="13.5" fill="#E2E2F0" rx="8" ry="8" style="stroke:#181818;stroke-width:0.5;"/><path d="M157.3906,21.5 L157.3906,48.5 M144.3906,29.5 L170.3906,29.5 M157.3906,48.5 L144.3906,63.5 M157.3906,48.5 L170.3906,63.5" fill="none" style="stroke:#181818;stroke-width:0.5;"/></g><g class="participant participant-tail" data-participant="UsuarioA"><text fill="#000000" font-family="sans-serif" font-size="14" lengthAdjust="spacing" textLength="62.7813" x="123" y="1318.4717">UsuarioA</text><ellipse cx="157.3906" cy="1330.2734" fill="#E2E2F0" rx="8" ry="8" style="stroke:#181818;stroke-width:0.5;"/><path d="M157.3906,1338.2734 L157.3906,1365.2734 M144.3906,1346.2734 L170.3906,1346.2734 M157.3906,1365.2734 L144.3906,1380.2734 M157.3906,1365.2734 L170.3906,1380.2734" fill="none" style="stroke:#181818;stroke-width:0.5;"/></g><g class="participant participant-head" data-participant="UsuarioB"><text fill="#000000" font-family="sans-serif" font-size="14" lengthAdjust="spacing" textLength="62.8086" x="381.5361" y="77.9951">UsuarioB</text><ellipse cx="415.9404" cy="13.5" fill="#E2E2F0" rx="8" ry="8" style="stroke:#181818;stroke-width:0.5;"/><path d="M415.9404,21.5 L415.9404,48.5 M402.9404,29.5 L428.9404,29.5 M415.9404,48.5 L402.9404,63.5 M415.9404,48.5 L428.9404,63.5" fill="none" style="stroke:#181818;stroke-width:0.5;"/></g><g class="participant participant-tail" data-participant="UsuarioB"><text fill="#000000" font-family="sans-serif" font-size="14" lengthAdjust="spacing" textLength="62.8086" x="381.5361" y="1318.4717">UsuarioB</text><ellipse cx="415.9404" cy="1330.2734" fill="#E2E2F0" rx="8" ry="8" style="stroke:#181818;stroke-width:0.5;"/><path d="M415.9404,1338.2734 L415.9404,1365.2734 M402.9404,1346.2734 L428.9404,1346.2734 M415.9404,1365.2734 L402.9404,1380.2734 M415.9404,1365.2734 L428.9404,1380.2734" fill="none" style="stroke:#181818;stroke-width:0.5;"/></g><g class="participant participant-head" data-participant="GameService"><rect fill="#E2E2F0" height="30.2969" rx="2.5" ry="2.5" style="stroke:#181818;stroke-width:0.5;" width="111.8701" x="673.6743" y="50"/><text fill="#000000" font-family="sans-serif" font-size="14" lengthAdjust="spacing" textLength="97.8701" x="680.6743" y="69.9951">Game Service</text></g><g class="participant participant-tail" data-participant="GameService"><rect fill="#E2E2F0" height="30.2969" rx="2.5" ry="2.5" style="stroke:#181818;stroke-width:0.5;" width="111.8701" x="673.6743" y="1305.4766"/><text fill="#000000" font-family="sans-serif" font-size="14" lengthAdjust="spacing" textLength="97.8701" x="680.6743" y="1325.4717">Game Service</text></g><g class="participant participant-head" data-participant="Redis"><rect fill="#E2E2F0" height="30.2969" rx="2.5" ry="2.5" style="stroke:#181818;stroke-width:0.5;" width="52.4111" x="1016.0825" y="50"/><text fill="#000000" font-family="sans-serif" font-size="14" lengthAdjust="spacing" textLength="38.4111" x="1023.0825" y="69.9951">Redis</text></g><g class="participant participant-tail" data-participant="Redis"><rect fill="#E2E2F0" height="30.2969" rx="2.5" ry="2.5" style="stroke:#181818;stroke-width:0.5;" width="52.4111" x="1016.0825" y="1305.4766"/><text fill="#000000" font-family="sans-serif" font-size="14" lengthAdjust="spacing" textLength="38.4111" x="1023.0825" y="1325.4717">Redis</text></g><g class="participant participant-head" data-participant="ChatService"><rect fill="#E2E2F0" height="30.2969" rx="2.5" ry="2.5" style="stroke:#181818;stroke-width:0.5;" width="102.9082" x="1317.8901" y="50"/><text fill="#000000" font-family="sans-serif" font-size="14" lengthAdjust="spacing" textLength="88.9082" x="1324.8901" y="69.9951">Chat Service</text></g><g class="participant participant-tail" data-participant="ChatService"><rect fill="#E2E2F0" height="30.2969" rx="2.5" ry="2.5" style="stroke:#181818;stroke-width:0.5;" width="102.9082" x="1317.8901" y="1305.4766"/><text fill="#000000" font-family="sans-serif" font-size="14" lengthAdjust="spacing" textLength="88.9082" x="1324.8901" y="1325.4717">Chat Service</text></g><g class="participant participant-head" data-participant="DB"><rect fill="#E2E2F0" height="30.2969" rx="2.5" ry="2.5" style="stroke:#181818;stroke-width:0.5;" width="127.8252" x="1430.7983" y="50"/><text fill="#000000" font-family="sans-serif" font-size="14" lengthAdjust="spacing" textLength="113.8252" x="1437.7983" y="69.9951">Banco de Dados</text></g><g class="participant participant-tail" data-participant="DB"><rect fill="#E2E2F0" height="30.2969" rx="2.5" ry="2.5" style="stroke:#181818;stroke-width:0.5;" width="127.8252" x="1430.7983" y="1305.4766"/><text fill="#000000" font-family="sans-serif" font-size="14" lengthAdjust="spacing" textLength="113.8252" x="1437.7983" y="1325.4717">Banco de Dados</text></g><path d="M8,96.2969 L8,121.2969 L151,121.2969 L151,106.2969 L141,96.2969 L8,96.2969" fill="#FEFFDD" style="stroke:#181818;stroke-width:0.5;"/><path d="M141,96.2969 L141,106.2969 L151,106.2969 L141,96.2969" fill="#FEFFDD" style="stroke:#181818;stroke-width:0.5;"/><text fill="#000000" font-family="sans-serif" font-size="13" lengthAdjust="spacing" textLength="122.9541" x="14" y="113.3638">Create Lobby Case</text><g class="message" data-participant-1="UsuarioA" data-participant-2="GameService"><polygon fill="#181818" points="717.6094,143.5625,727.6094,147.5625,717.6094,151.5625,721.6094,147.5625" style="stroke:#181818;stroke-width:1;"/><line style="stroke:#181818;stroke-width:1;" x1="157.3906" x2="723.6094" y1="147.5625" y2="147.5625"/><text fill="#000000" font-family="sans-serif" font-size="13" lengthAdjust="spacing" textLength="198.0786" x="164.3906" y="142.4966">Create lobby (section 5 figma)</text></g><g class="message" data-participant-1="GameService" data-participant-2="Redis"><polygon fill="#181818" points="740.6094,172.6953,730.6094,176.6953,740.6094,180.6953,736.6094,176.6953" style="stroke:#181818;stroke-width:1;"/><polygon fill="#181818" points="1030.2881,172.6953,1040.2881,176.6953,1030.2881,180.6953,1034.2881,176.6953" style="stroke:#181818;stroke-width:1;"/><line style="stroke:#181818;stroke-width:1;stroke-dasharray:2.0,2.0;" x1="734.6094" x2="1036.2881" y1="176.6953" y2="176.6953"/><text fill="#000000" font-family="sans-serif" font-size="13" lengthAdjust="spacing" textLength="203.4932" x="746.6094" y="171.6294">Save LobbyData - TTL 1 Minute</text></g><g class="message" data-participant-1="GameService" data-participant-2="UsuarioA"><polygon fill="#181818" points="168.3906,201.8281,158.3906,205.8281,168.3906,209.8281,164.3906,205.8281" style="stroke:#181818;stroke-width:1;"/><line style="stroke:#181818;stroke-width:1;" x1="162.3906" x2="728.6094" y1="205.8281" y2="205.8281"/><text fill="#000000" font-family="sans-serif" font-size="13" lengthAdjust="spacing" textLength="107.561" x="174.3906" y="200.7622">Return match_id</text></g><g class="message" data-participant-1="UsuarioA" data-participant-2="GameService"><polygon fill="#181818" points="717.6094,230.9609,727.6094,234.9609,717.6094,238.9609,721.6094,234.9609" style="stroke:#181818;stroke-width:1;"/><line style="stroke:#181818;stroke-width:1;" x1="157.3906" x2="723.6094" y1="234.9609" y2="234.9609"/><text fill="#000000" font-family="sans-serif" font-size="13" lengthAdjust="spacing" textLength="313.4282" x="164.3906" y="229.895">Handshake Ws lobby/match - params(match_id)</text></g><g class="message" data-participant-1="GameService" data-participant-2="Redis"><polygon fill="#181818" points="740.6094,260.0938,730.6094,264.0938,740.6094,268.0938,736.6094,264.0938" style="stroke:#181818;stroke-width:1;"/><polygon fill="#181818" points="1030.2881,260.0938,1040.2881,264.0938,1030.2881,268.0938,1034.2881,264.0938" style="stroke:#181818;stroke-width:1;"/><line style="stroke:#181818;stroke-width:1;stroke-dasharray:2.0,2.0;" x1="734.6094" x2="1036.2881" y1="264.0938" y2="264.0938"/><text fill="#000000" font-family="sans-serif" font-size="13" lengthAdjust="spacing" textLength="80.5962" x="746.6094" y="259.0278">Remove TTL</text></g><g class="message" data-participant-1="UsuarioA" data-participant-2="UsuarioA"><line style="stroke:#181818;stroke-width:1;" x1="157.3906" x2="199.3906" y1="293.2266" y2="293.2266"/><line style="stroke:#181818;stroke-width:1;" x1="199.3906" x2="199.3906" y1="293.2266" y2="306.2266"/><line style="stroke:#181818;stroke-width:1;" x1="158.3906" x2="199.3906" y1="306.2266" y2="306.2266"/><polygon fill="#181818" points="168.3906,302.2266,158.3906,306.2266,168.3906,310.2266,164.3906,306.2266" style="stroke:#181818;stroke-width:1;"/><text fill="#000000" font-family="sans-serif" font-size="13" lengthAdjust="spacing" textLength="244.5498" x="164.3906" y="288.1606">Refresh frontend to lobby component</text></g><path d="M5,319.2266 L5,344.2266 L152,344.2266 L152,329.2266 L142,319.2266 L5,319.2266" fill="#FEFFDD" style="stroke:#181818;stroke-width:0.5;"/><path d="M142,319.2266 L142,329.2266 L152,329.2266 L142,319.2266" fill="#FEFFDD" style="stroke:#181818;stroke-width:0.5;"/><text fill="#000000" font-family="sans-serif" font-size="13" lengthAdjust="spacing" textLength="126.5532" x="11" y="336.2935">Update Lobby Case</text><g class="message" data-participant-1="UsuarioA" data-participant-2="GameService"><polygon fill="#181818" points="717.6094,366.4922,727.6094,370.4922,717.6094,374.4922,721.6094,370.4922" style="stroke:#181818;stroke-width:1;"/><line style="stroke:#181818;stroke-width:1;" x1="157.3906" x2="723.6094" y1="370.4922" y2="370.4922"/><text fill="#000000" font-family="sans-serif" font-size="13" lengthAdjust="spacing" textLength="121.6465" x="164.3906" y="365.4263">Update LobbyData</text></g><g class="message" data-participant-1="GameService" data-participant-2="Redis"><polygon fill="#181818" points="740.6094,395.625,730.6094,399.625,740.6094,403.625,736.6094,399.625" style="stroke:#181818;stroke-width:1;"/><polygon fill="#181818" points="1030.2881,395.625,1040.2881,399.625,1030.2881,403.625,1034.2881,399.625" style="stroke:#181818;stroke-width:1;"/><line style="stroke:#181818;stroke-width:1;stroke-dasharray:2.0,2.0;" x1="734.6094" x2="1036.2881" y1="399.625" y2="399.625"/><text fill="#000000" font-family="sans-serif" font-size="13" lengthAdjust="spacing" textLength="121.6465" x="746.6094" y="394.5591">Update LobbyData</text></g><g class="message" data-participant-1="GameService" data-participant-2="UsuarioA"><polygon fill="#181818" points="168.3906,424.7578,158.3906,428.7578,168.3906,432.7578,164.3906,428.7578" style="stroke:#181818;stroke-width:1;"/><line style="stroke:#181818;stroke-width:1;" x1="162.3906" x2="728.6094" y1="428.7578" y2="428.7578"/><text fill="#000000" font-family="sans-serif" font-size="13" lengthAdjust="spacing" textLength="148.2622" x="174.3906" y="423.6919">Return new lobby data</text></g><g class="message" data-participant-1="GameService" data-participant-2="UsuarioB"><polygon fill="#181818" points="426.9404,453.8906,416.9404,457.8906,426.9404,461.8906,422.9404,457.8906" style="stroke:#181818;stroke-width:1;"/><line style="stroke:#181818;stroke-width:1;" x1="420.9404" x2="728.6094" y1="457.8906" y2="457.8906"/><text fill="#000000" font-family="sans-serif" font-size="13" lengthAdjust="spacing" textLength="148.2622" x="432.9404" y="452.8247">Return new lobby data</text></g><g class="message" data-participant-1="UsuarioA" data-participant-2="UsuarioA"><line style="stroke:#181818;stroke-width:1;" x1="157.3906" x2="199.3906" y1="487.0234" y2="487.0234"/><line style="stroke:#181818;stroke-width:1;" x1="199.3906" x2="199.3906" y1="487.0234" y2="500.0234"/><line style="stroke:#181818;stroke-width:1;" x1="158.3906" x2="199.3906" y1="500.0234" y2="500.0234"/><polygon fill="#181818" points="168.3906,496.0234,158.3906,500.0234,168.3906,504.0234,164.3906,500.0234" style="stroke:#181818;stroke-width:1;"/><text fill="#000000" font-family="sans-serif" font-size="13" lengthAdjust="spacing" textLength="117.7998" x="164.3906" y="481.9575">Refresh local data</text></g><path d="M13,513.0234 L13,538.0234 L151,538.0234 L151,523.0234 L141,513.0234 L13,513.0234" fill="#FEFFDD" style="stroke:#181818;stroke-width:0.5;"/><path d="M141,513.0234 L141,523.0234 L151,523.0234 L141,513.0234" fill="#FEFFDD" style="stroke:#181818;stroke-width:0.5;"/><text fill="#000000" font-family="sans-serif" font-size="13" lengthAdjust="spacing" textLength="117.4761" x="19" y="530.0903">Invite Friend Case</text><g class="message" data-participant-1="UsuarioA" data-participant-2="GameService"><polygon fill="#181818" points="717.6094,560.2891,727.6094,564.2891,717.6094,568.2891,721.6094,564.2891" style="stroke:#181818;stroke-width:1;"/><line style="stroke:#181818;stroke-width:1;" x1="157.3906" x2="723.6094" y1="564.2891" y2="564.2891"/><text fill="#000000" font-family="sans-serif" font-size="13" lengthAdjust="spacing" textLength="316.2148" x="164.3906" y="559.2231">Invite friend websocket event - params (user_id)</text></g><g class="message" data-participant-1="GameService" data-participant-2="Redis"><polygon fill="#181818" points="740.6094,589.4219,730.6094,593.4219,740.6094,597.4219,736.6094,593.4219" style="stroke:#181818;stroke-width:1;"/><polygon fill="#181818" points="1030.2881,589.4219,1040.2881,593.4219,1030.2881,597.4219,1034.2881,593.4219" style="stroke:#181818;stroke-width:1;"/><line style="stroke:#181818;stroke-width:1;stroke-dasharray:2.0,2.0;" x1="734.6094" x2="1036.2881" y1="593.4219" y2="593.4219"/><text fill="#000000" font-family="sans-serif" font-size="13" lengthAdjust="spacing" textLength="119.7803" x="746.6094" y="588.356">this user is friend?</text></g><g class="message" data-participant-1="GameService" data-participant-2="Redis"><polygon fill="#181818" points="740.6094,618.5547,730.6094,622.5547,740.6094,626.5547,736.6094,622.5547" style="stroke:#181818;stroke-width:1;"/><polygon fill="#181818" points="1030.2881,618.5547,1040.2881,622.5547,1030.2881,626.5547,1034.2881,622.5547" style="stroke:#181818;stroke-width:1;"/><line style="stroke:#181818;stroke-width:1;stroke-dasharray:2.0,2.0;" x1="734.6094" x2="1036.2881" y1="622.5547" y2="622.5547"/><text fill="#000000" font-family="sans-serif" font-size="13" lengthAdjust="spacing" textLength="137.9727" x="746.6094" y="617.4888">this match still valid?</text></g><g class="message" data-participant-1="GameService" data-participant-2="Redis"><polygon fill="#181818" points="1030.2881,647.6875,1040.2881,651.6875,1030.2881,655.6875,1034.2881,651.6875" style="stroke:#181818;stroke-width:1;"/><line style="stroke:#181818;stroke-width:1;stroke-dasharray:2.0,2.0;" x1="729.6094" x2="1036.2881" y1="651.6875" y2="651.6875"/><text fill="#000000" font-family="sans-serif" font-size="13" lengthAdjust="spacing" textLength="288.6787" x="736.6094" y="646.6216">Publish Stream - params (match_id, user_id)</text></g><g class="message" data-participant-1="Redis" data-participant-2="ChatService"><polygon fill="#181818" points="1357.3442,676.8203,1367.3442,680.8203,1357.3442,684.8203,1361.3442,680.8203" style="stroke:#181818;stroke-width:1;"/><line style="stroke:#181818;stroke-width:1;stroke-dasharray:2.0,2.0;" x1="1042.2881" x2="1363.3442" y1="680.8203" y2="680.8203"/><text fill="#000000" font-family="sans-serif" font-size="13" lengthAdjust="spacing" textLength="303.0562" x="1049.2881" y="675.7544">Consume Stream - params (match_id, user_id)</text></g><g class="message" data-participant-1="ChatService" data-participant-2="UsuarioB"><polygon fill="#181818" points="426.9404,705.9531,416.9404,709.9531,426.9404,713.9531,422.9404,709.9531" style="stroke:#181818;stroke-width:1;"/><line style="stroke:#181818;stroke-width:1;" x1="420.9404" x2="1368.3442" y1="709.9531" y2="709.9531"/><text fill="#000000" font-family="sans-serif" font-size="13" lengthAdjust="spacing" textLength="191.3564" x="432.9404" y="704.8872">receive match_id on live chat</text></g><g class="message" data-participant-1="UsuarioB" data-participant-2="GameService"><polygon fill="#181818" points="717.6094,735.0859,727.6094,739.0859,717.6094,743.0859,721.6094,739.0859" style="stroke:#181818;stroke-width:1;"/><line style="stroke:#181818;stroke-width:1;" x1="415.9404" x2="723.6094" y1="739.0859" y2="739.0859"/><text fill="#000000" font-family="sans-serif" font-size="13" lengthAdjust="spacing" textLength="289.6689" x="422.9404" y="734.02">Handshake lobby/match - params(match_id)</text></g><g class="message" data-participant-1="GameService" data-participant-2="Redis"><polygon fill="#181818" points="740.6094,764.2188,730.6094,768.2188,740.6094,772.2188,736.6094,768.2188" style="stroke:#181818;stroke-width:1;"/><polygon fill="#181818" points="1030.2881,764.2188,1040.2881,768.2188,1030.2881,772.2188,1034.2881,768.2188" style="stroke:#181818;stroke-width:1;"/><line style="stroke:#181818;stroke-width:1;stroke-dasharray:2.0,2.0;" x1="734.6094" x2="1036.2881" y1="768.2188" y2="768.2188"/><text fill="#000000" font-family="sans-serif" font-size="13" lengthAdjust="spacing" textLength="109.2051" x="746.6094" y="763.1528">is this lobby full?</text></g><g class="message" data-participant-1="GameService" data-participant-2="Redis"><polygon fill="#181818" points="740.6094,793.3516,730.6094,797.3516,740.6094,801.3516,736.6094,797.3516" style="stroke:#181818;stroke-width:1;"/><polygon fill="#181818" points="1030.2881,793.3516,1040.2881,797.3516,1030.2881,801.3516,1034.2881,797.3516" style="stroke:#181818;stroke-width:1;"/><line style="stroke:#181818;stroke-width:1;stroke-dasharray:2.0,2.0;" x1="734.6094" x2="1036.2881" y1="797.3516" y2="797.3516"/><text fill="#000000" font-family="sans-serif" font-size="13" lengthAdjust="spacing" textLength="124.0396" x="746.6094" y="792.2856">Update lobby state</text></g><g class="message" data-participant-1="GameService" data-participant-2="UsuarioB"><polygon fill="#181818" points="426.9404,822.4844,416.9404,826.4844,426.9404,830.4844,422.9404,826.4844" style="stroke:#181818;stroke-width:1;"/><line style="stroke:#181818;stroke-width:1;" x1="420.9404" x2="728.6094" y1="826.4844" y2="826.4844"/><text fill="#000000" font-family="sans-serif" font-size="13" lengthAdjust="spacing" textLength="134.7227" x="432.9404" y="821.4185">successful lobby join</text></g><path d="M20,839.4844 L20,864.4844 L151,864.4844 L151,849.4844 L141,839.4844 L20,839.4844" fill="#FEFFDD" style="stroke:#181818;stroke-width:0.5;"/><path d="M141,839.4844 L141,849.4844 L151,849.4844 L141,839.4844" fill="#FEFFDD" style="stroke:#181818;stroke-width:0.5;"/><text fill="#000000" font-family="sans-serif" font-size="13" lengthAdjust="spacing" textLength="110.5381" x="26" y="856.5513">Start Game Case</text><g class="message" data-participant-1="UsuarioA" data-participant-2="GameService"><polygon fill="#181818" points="717.6094,886.75,727.6094,890.75,717.6094,894.75,721.6094,890.75" style="stroke:#181818;stroke-width:1;"/><line style="stroke:#181818;stroke-width:1;" x1="157.3906" x2="723.6094" y1="890.75" y2="890.75"/><text fill="#000000" font-family="sans-serif" font-size="13" lengthAdjust="spacing" textLength="176.3696" x="164.3906" y="885.6841">Update ready state to True</text></g><g class="message" data-participant-1="GameService" data-participant-2="Redis"><polygon fill="#181818" points="740.6094,915.8828,730.6094,919.8828,740.6094,923.8828,736.6094,919.8828" style="stroke:#181818;stroke-width:1;"/><polygon fill="#181818" points="1030.2881,915.8828,1040.2881,919.8828,1030.2881,923.8828,1034.2881,919.8828" style="stroke:#181818;stroke-width:1;"/><line style="stroke:#181818;stroke-width:1;stroke-dasharray:2.0,2.0;" x1="734.6094" x2="1036.2881" y1="919.8828" y2="919.8828"/><text fill="#000000" font-family="sans-serif" font-size="13" lengthAdjust="spacing" textLength="279.646" x="746.6094" y="914.8169">Is he the last user to set Ready state? - NO</text></g><g class="message" data-participant-1="GameService" data-participant-2="Redis"><polygon fill="#181818" points="740.6094,945.0156,730.6094,949.0156,740.6094,953.0156,736.6094,949.0156" style="stroke:#181818;stroke-width:1;"/><polygon fill="#181818" points="1030.2881,945.0156,1040.2881,949.0156,1030.2881,953.0156,1034.2881,949.0156" style="stroke:#181818;stroke-width:1;"/><line style="stroke:#181818;stroke-width:1;stroke-dasharray:2.0,2.0;" x1="734.6094" x2="1036.2881" y1="949.0156" y2="949.0156"/><text fill="#000000" font-family="sans-serif" font-size="13" lengthAdjust="spacing" textLength="211.2754" x="746.6094" y="943.9497">Update user state in match data</text></g><g class="message" data-participant-1="UsuarioB" data-participant-2="GameService"><polygon fill="#181818" points="717.6094,974.1484,727.6094,978.1484,717.6094,982.1484,721.6094,978.1484" style="stroke:#181818;stroke-width:1;"/><line style="stroke:#181818;stroke-width:1;" x1="415.9404" x2="723.6094" y1="978.1484" y2="978.1484"/><text fill="#000000" font-family="sans-serif" font-size="13" lengthAdjust="spacing" textLength="176.3696" x="422.9404" y="973.0825">Update ready state to True</text></g><g class="message" data-participant-1="GameService" data-participant-2="Redis"><polygon fill="#181818" points="740.6094,1003.2813,730.6094,1007.2813,740.6094,1011.2813,736.6094,1007.2813" style="stroke:#181818;stroke-width:1;"/><polygon fill="#181818" points="1030.2881,1003.2813,1040.2881,1007.2813,1030.2881,1011.2813,1034.2881,1007.2813" style="stroke:#181818;stroke-width:1;"/><line style="stroke:#181818;stroke-width:1;stroke-dasharray:2.0,2.0;" x1="734.6094" x2="1036.2881" y1="1007.2813" y2="1007.2813"/><text fill="#000000" font-family="sans-serif" font-size="13" lengthAdjust="spacing" textLength="284.0957" x="746.6094" y="1002.2153">Is he the last user to set Ready state? - YES</text></g><g class="message" data-participant-1="GameService" data-participant-2="Redis"><polygon fill="#181818" points="740.6094,1032.4141,730.6094,1036.4141,740.6094,1040.4141,736.6094,1036.4141" style="stroke:#181818;stroke-width:1;"/><polygon fill="#181818" points="1030.2881,1032.4141,1040.2881,1036.4141,1030.2881,1040.4141,1034.2881,1036.4141" style="stroke:#181818;stroke-width:1;"/><line style="stroke:#181818;stroke-width:1;stroke-dasharray:2.0,2.0;" x1="734.6094" x2="1036.2881" y1="1036.4141" y2="1036.4141"/><text fill="#000000" font-family="sans-serif" font-size="13" lengthAdjust="spacing" textLength="211.2754" x="746.6094" y="1031.3481">Update user state in match data</text></g><g class="message" data-participant-1="GameService" data-participant-2="UsuarioA"><polygon fill="#181818" points="168.3906,1061.5469,158.3906,1065.5469,168.3906,1069.5469,164.3906,1065.5469" style="stroke:#181818;stroke-width:1;"/><line style="stroke:#181818;stroke-width:1;" x1="162.3906" x2="728.6094" y1="1065.5469" y2="1065.5469"/><text fill="#000000" font-family="sans-serif" font-size="13" lengthAdjust="spacing" textLength="246.8604" x="174.3906" y="1060.481">Notify match is starting in 15 seconds</text></g><g class="message" data-participant-1="GameService" data-participant-2="UsuarioB"><polygon fill="#181818" points="426.9404,1090.6797,416.9404,1094.6797,426.9404,1098.6797,422.9404,1094.6797" style="stroke:#181818;stroke-width:1;"/><line style="stroke:#181818;stroke-width:1;" x1="420.9404" x2="728.6094" y1="1094.6797" y2="1094.6797"/><text fill="#000000" font-family="sans-serif" font-size="13" lengthAdjust="spacing" textLength="246.8604" x="432.9404" y="1089.6138">Notify match is starting in 15 seconds</text></g><g class="message" data-participant-1="GameService" data-participant-2="GameService"><line style="stroke:#181818;stroke-width:1;stroke-dasharray:2.0,2.0;" x1="729.6094" x2="771.6094" y1="1123.8125" y2="1123.8125"/><line style="stroke:#181818;stroke-width:1;stroke-dasharray:2.0,2.0;" x1="771.6094" x2="771.6094" y1="1123.8125" y2="1136.8125"/><line style="stroke:#181818;stroke-width:1;stroke-dasharray:2.0,2.0;" x1="730.6094" x2="771.6094" y1="1136.8125" y2="1136.8125"/><polygon fill="#181818" points="740.6094,1132.8125,730.6094,1136.8125,740.6094,1140.8125,736.6094,1136.8125" style="stroke:#181818;stroke-width:1;"/><text fill="#000000" font-family="sans-serif" font-size="13" lengthAdjust="spacing" textLength="166.0166" x="736.6094" y="1118.7466">Start delay of 15 seconds</text></g><path d="M29,1149.8125 L29,1174.8125 L151,1174.8125 L151,1159.8125 L141,1149.8125 L29,1149.8125" fill="#FEFFDD" style="stroke:#181818;stroke-width:0.5;"/><path d="M141,1149.8125 L141,1159.8125 L151,1159.8125 L141,1149.8125" fill="#FEFFDD" style="stroke:#181818;stroke-width:0.5;"/><text fill="#000000" font-family="sans-serif" font-size="13" lengthAdjust="spacing" textLength="101.6641" x="35" y="1166.8794">End game Case</text><g class="message" data-participant-1="GameService" data-participant-2="UsuarioA"><polygon fill="#181818" points="168.3906,1197.0781,158.3906,1201.0781,168.3906,1205.0781,164.3906,1201.0781" style="stroke:#181818;stroke-width:1;"/><line style="stroke:#181818;stroke-width:1;" x1="162.3906" x2="728.6094" y1="1201.0781" y2="1201.0781"/><text fill="#000000" font-family="sans-serif" font-size="13" lengthAdjust="spacing" textLength="149.4302" x="174.3906" y="1196.0122">Disconnect WebSocket</text></g><g class="message" data-participant-1="GameService" data-participant-2="UsuarioB"><polygon fill="#181818" points="426.9404,1226.2109,416.9404,1230.2109,426.9404,1234.2109,422.9404,1230.2109" style="stroke:#181818;stroke-width:1;"/><line style="stroke:#181818;stroke-width:1;" x1="420.9404" x2="728.6094" y1="1230.2109" y2="1230.2109"/><text fill="#000000" font-family="sans-serif" font-size="13" lengthAdjust="spacing" textLength="149.4302" x="432.9404" y="1225.145">Disconnect WebSocket</text></g><g class="message" data-participant-1="GameService" data-participant-2="DB"><polygon fill="#181818" points="740.6094,1255.3438,730.6094,1259.3438,740.6094,1263.3438,736.6094,1259.3438" style="stroke:#181818;stroke-width:1;"/><polygon fill="#181818" points="1482.7109,1255.3438,1492.7109,1259.3438,1482.7109,1263.3438,1486.7109,1259.3438" style="stroke:#181818;stroke-width:1;"/><line style="stroke:#181818;stroke-width:1;stroke-dasharray:2.0,2.0;" x1="734.6094" x2="1488.7109" y1="1259.3438" y2="1259.3438"/><text fill="#000000" font-family="sans-serif" font-size="13" lengthAdjust="spacing" textLength="77.1558" x="746.6094" y="1254.2778">Save match</text></g><g class="message" data-participant-1="GameService" data-participant-2="Redis"><polygon fill="#181818" points="740.6094,1284.4766,730.6094,1288.4766,740.6094,1292.4766,736.6094,1288.4766" style="stroke:#181818;stroke-width:1;"/><polygon fill="#181818" points="1030.2881,1284.4766,1040.2881,1288.4766,1030.2881,1292.4766,1034.2881,1288.4766" style="stroke:#181818;stroke-width:1;"/><line style="stroke:#181818;stroke-width:1;stroke-dasharray:2.0,2.0;" x1="734.6094" x2="1036.2881" y1="1288.4766" y2="1288.4766"/><text fill="#000000" font-family="sans-serif" font-size="13" lengthAdjust="spacing" textLength="116.0225" x="746.6094" y="1283.4106">Delete lobby data</text></g><!--SRC=[lLN1Rfj04Btp5QESNAbHbKCkg6fKJDf6IjFAE8fogiRBOBPPTYrsSUI_xonW0b7MZdpe0HlOzsRVl9qPK3XJmxrji9RcQuJZnoJQOEsaa1lK3iw-OqMGKRsLWiu0BVWN_VCKkQ1SsXRItaqNvoMwIHZ_uiqm2MfX82T8CJTTl3I9eaWRHw2eS62AGNeCyvgG5sxDQhM3ELgAzcjm_cKiTe2g5Zgp99mq6YwXaEiAFqGZB7m-PtARHWmPRlluAJg4SrWkR-42VahTE9gmc3Di7Y_8DRM62fqe_yWy90lY7wXpM-8JmOFjn7rgIRmJ6uELdUrZ13Kkg38iaeLDjdaHmxYY9bj2KHljIEVWJ6-4CDN6QD8kxF7z9d-lnsEejolewa7WMqPgUkuLvs5u4e8ViKKPWQf31bsuqLl92zzgwVqxP0F4FRReiC-qiaOyaGFQij73mSAiiLGVE5Y8NSc_7WNytuMxEWpkQiSwgHHiKSbN-17yTxDIafFF73T6DLArhxUFCEZhA9uyQjnuRhHj_7nuHuGHRtfWDGcINBrx3d1JAlz2C2CQSE6sEQbd8EQhDQohag9HAkniNwqTr3eCDduIsqO8ifRZzV2_HkfmLMMEXr-RsP6IwYMmqNalmVVmicueg1fkB9GCuqkXTLqTCSbo9IvUubonQtU_ZkNUahjzPJ_M9gsL_6V5ZzVPoPA3i-REE5diUYX7ilvqf5vx_iKbon26gouyV4xXlxQjguYS5EvygOneeHgwvXcp7Yeec1oaqd8WpHy-UA1LrewaS2x7uQtbgOUstyWsw-30JqdHq4B-5Fu1]--></g></svg>